<?xml version="1.0" encoding="UTF-8" standalone="no"?>
<!-- Created with Inkscape (http://www.inkscape.org/) -->

<svg
   width="128mm"
   height="128mm"
   viewBox="0 0 128 128"
   version="1.1"
   id="svg1"
   inkscape:export-filename="knob.png"
   inkscape:export-xdpi="96"
   inkscape:export-ydpi="96"
   inkscape:version="1.3.2 (091e20e, 2023-11-25)"
   sodipodi:docname="knob.svg"
   xmlns:inkscape="http://www.inkscape.org/namespaces/inkscape"
   xmlns:sodipodi="http://sodipodi.sourceforge.net/DTD/sodipodi-0.dtd"
   xmlns="http://www.w3.org/2000/svg"
   xmlns:svg="http://www.w3.org/2000/svg">
  <sodipodi:namedview
     id="namedview1"
     pagecolor="#ffffff"
     bordercolor="#000000"
     borderopacity="0.25"
     inkscape:showpageshadow="2"
     inkscape:pageopacity="0.0"
     inkscape:pagecheckerboard="0"
     inkscape:deskcolor="#d1d1d1"
     inkscape:document-units="mm"
     inkscape:zoom="1.4200196"
     inkscape:cx="285.91154"
     inkscape:cy="258.09502"
     inkscape:window-width="1920"
     inkscape:window-height="1003"
     inkscape:window-x="0"
     inkscape:window-y="0"
     inkscape:window-maximized="1"
     inkscape:current-layer="layer1" />
  <defs
     id="defs1" />
  <g
     inkscape:label="Layer 1"
     inkscape:groupmode="layer"
     id="layer1">
    <path
       sodipodi:type="star"
       style="fill:none;fill-opacity:0.0943118;stroke:#000000;stroke-width:14.12813846;stroke-dasharray:none"
       id="path1"
       inkscape:flatsided="false"
       sodipodi:sides="7"
       sodipodi:cx="64.389397"
       sodipodi:cy="64.2089"
       sodipodi:r1="65.016708"
       sodipodi:r2="59.815372"
       sodipodi:arg1="-2.8214181"
       sodipodi:arg2="-2.3726191"
       inkscape:rounded="0.6"
       inkscape:randomized="0"
       d="M 2.6768052,43.746046 C 8.0090285,27.664943 9.623089,34.78842 21.404584,22.613412 33.186077,10.438406 26.013434,9.0591744 41.910729,3.2016723 57.808028,-2.655831 53.24502,3.0475073 70.109467,4.6676578 c 16.864444,1.6201502 13.4707,-4.84758508 27.962081,3.9293283 14.491382,8.7769149 7.187342,8.7653849 16.435472,22.9606879 9.24812,14.1953 12.18884,7.509398 14.362,24.311532 2.17316,16.802137 -2.37182,11.084421 -7.70404,27.165524 -5.33222,16.081099 1.72853,14.21165 -10.05296,26.38666 -11.781496,12.175 -10.14495,5.05666 -26.042252,10.91416 -15.897295,5.8575 -10.033393,10.21224 -26.897836,8.59209 C 41.307485,127.30749 47.893199,124.14878 33.401814,115.37186 18.910432,106.59495 19.161844,113.89467 9.9137212,99.699366 0.66559592,85.504063 7.2413043,88.683554 5.0681418,71.881417 2.8949798,55.079283 -2.6554169,59.827145 2.6768052,43.746046 Z"
       inkscape:transform-center-x="-0.24355757"
       inkscape:transform-center-y="-3.5210726"
       transform="matrix(0.71917804,-0.43540653,0.43988959,0.73680859,-10.667624,45.639015)" />
    <ellipse
       style="fill:#dbdbdb;fill-opacity:1;stroke:#000000;stroke-width:12.1872;stroke-dasharray:none"
       id="path2"
       ry="47.416435"
       rx="47.412434"
       cy="62.257961"
       cx="63.751095" />
    <path
       style="fill:#ffffff;fill-opacity:1;stroke:#ffffff;stroke-width:6.13341;stroke-dasharray:none;stroke-opacity:1"
       d="M 63.34651,21.078965 63.44459,3.4116852"
       id="path3" />
  </g>
</svg>
